/* XPM */
static const char *const search_left_xpm[] = {
/* columns rows colors chars-per-pixel */
"32 32 2 1 ",
"  c black",
". c None",
/* pixels */
"................................",
"................................",
"..............    ..............",
"............       .............",
"...........         ............",
"...........   ...   ............",
"...........   ...    ...........",
"..........    ....   ...........",
"..........    ....    ..........",
"..            .....    .........",
".              .....           .",
".              ......           ",
"    ..................          ",
"   .....................        ",
"   .....................        ",
"    ....................        ",
".          .............        ",
"..        ..............        ",
"...       ..............        ",
"........   .............        ",
"........   .............        ",
"........   .............        ",
"........   .............        ",
".........   ............   ..   ",
".........   ............   ..   ",
".........   .........           ",
".........    ......             ",
"..........                     .",
"...........           ..........",
"............       .............",
"................................",
"................................"
};
